<svg xmlns="http://www.w3.org/2000/svg" width="20.612" height="21.6" viewBox="0 0 20.612 21.6">
    <g id="icon_collapse" data-name="icon/collapse" transform="translate(0.3 0.3)">
      <g id="noun_Settings_937618" transform="translate(0 0.001)">
        <path id="Shape" d="M9.976,21a2.313,2.313,0,0,1-1.535-.59A2.538,2.538,0,0,1,7.7,19.358a2.184,2.184,0,0,0-.7-.98.747.747,0,0,0-.418-.13h-.1a1.869,1.869,0,0,0-.818.186,2.381,2.381,0,0,1-2,0,2.412,2.412,0,0,1-1.3-1.5,2.663,2.663,0,0,1,.062-1.866,2.266,2.266,0,0,0,.166-1.208.963.963,0,0,0-.349-.531,2.139,2.139,0,0,0-.687-.446,2.612,2.612,0,0,1-.986-4,2.426,2.426,0,0,1,.986-.766,2.105,2.105,0,0,0,.934-.739A.862.862,0,0,0,2.6,6.86,2.463,2.463,0,0,0,2.4,5.9,2.65,2.65,0,0,1,2.936,3.06,2.378,2.378,0,0,1,4.65,2.325a2.325,2.325,0,0,1,1,.224,2.045,2.045,0,0,0,.861.189,2.1,2.1,0,0,0,.217-.011c.2,0,.4-.138.6-.421a3.733,3.733,0,0,0,.4-.71A2.552,2.552,0,0,1,9.377.1L9.684,0h.6l.1.015a2.9,2.9,0,0,1,1.247.65,2.426,2.426,0,0,1,.629.924,2.3,2.3,0,0,0,.7,1.007.735.735,0,0,0,.433.142l.063,0h.013a2.067,2.067,0,0,0,.867-.191,2.379,2.379,0,0,1,.986-.213,2.41,2.41,0,0,1,1.214.331,2.5,2.5,0,0,1,1.2,1.9,2.694,2.694,0,0,1-.183,1.374,2.386,2.386,0,0,0-.168,1.133.793.793,0,0,0,.272.5,2,2,0,0,0,.706.5A2.558,2.558,0,0,1,19.905,9.93c0,.009.006.017.01.025a.107.107,0,0,1,.011.04l.025.083.014.068a1.858,1.858,0,0,1,0,.712l-.012.062-.025.054c-.018.045-.034.092-.051.139l0,.008-.029.083a4.516,4.516,0,0,1-.264.641,2.253,2.253,0,0,1-1.125,1.023,2.109,2.109,0,0,0-.979.762.877.877,0,0,0-.112.5,2.273,2.273,0,0,0,.18.928,2.735,2.735,0,0,1,0,2.1,2.381,2.381,0,0,1-1.415,1.364,2.315,2.315,0,0,1-1.8-.065,2.049,2.049,0,0,0-.868-.193,2.079,2.079,0,0,0-.218.012.876.876,0,0,0-.556.368,2.243,2.243,0,0,0-.427.724A2.544,2.544,0,0,1,10.61,20.91,2.273,2.273,0,0,1,9.976,21ZM6.612,16.891a1.962,1.962,0,0,1,1.165.383,3.519,3.519,0,0,1,1.146,1.577,1.168,1.168,0,0,0,.346.49,1.035,1.035,0,0,0,1,.247,1.216,1.216,0,0,0,.773-.7,3.713,3.713,0,0,1,.682-1.158,2.113,2.113,0,0,1,1.4-.82,3.31,3.31,0,0,1,1.736.3,1.068,1.068,0,0,0,.448.1,1.094,1.094,0,0,0,.405-.078,1.051,1.051,0,0,0,.625-.617,1.324,1.324,0,0,0,.017-.98,3.711,3.711,0,0,1-.3-1.509,2.245,2.245,0,0,1,.357-1.283,3.381,3.381,0,0,1,1.555-1.241.909.909,0,0,0,.471-.421,3.565,3.565,0,0,0,.178-.442c.018-.057.039-.113.058-.167l.009-.026v-.029a.326.326,0,0,0,0-.062l-.008-.025-.007-.023c-.011-.033-.021-.068-.032-.107a1.236,1.236,0,0,0-.758-.93,3.287,3.287,0,0,1-1.162-.814A2.2,2.2,0,0,1,16.075,7.2a3.838,3.838,0,0,1,.274-1.806,1.207,1.207,0,0,0,.085-.646,1.118,1.118,0,0,0-.538-.882,1.165,1.165,0,0,0-.583-.158,1.149,1.149,0,0,0-.447.09,3.213,3.213,0,0,1-1.382.313h-.048l-.089,0a1.982,1.982,0,0,1-1.209-.421A3.691,3.691,0,0,1,11.027,2.1a1.1,1.1,0,0,0-.28-.405,1.533,1.533,0,0,0-.633-.32H9.882l-.129.039a1.249,1.249,0,0,0-.836.743,5.149,5.149,0,0,1-.55.98A2.122,2.122,0,0,1,6.855,4.1a3.264,3.264,0,0,1-.349.019,3.282,3.282,0,0,1-1.373-.3,1.087,1.087,0,0,0-.471-.107,1.105,1.105,0,0,0-.791.334,1.231,1.231,0,0,0-.263,1.314,3.946,3.946,0,0,1,.3,1.5,2.268,2.268,0,0,1-.369,1.326,3.428,3.428,0,0,1-1.5,1.189,1.1,1.1,0,0,0-.455.355,1.164,1.164,0,0,0-.241,1.05,1.2,1.2,0,0,0,.666.814,3.45,3.45,0,0,1,1.1.716,2.294,2.294,0,0,1,.764,1.368,3.735,3.735,0,0,1-.265,1.947,1.224,1.224,0,0,0-.017.886,1.05,1.05,0,0,0,.577.673,1.136,1.136,0,0,0,.484.108,1.153,1.153,0,0,0,.452-.092,3.258,3.258,0,0,1,1.39-.311h.11Zm3.371-2.1A4.2,4.2,0,0,1,5.905,10.5,4.2,4.2,0,0,1,9.989,6.2l-.01.008H10A4.2,4.2,0,0,1,14.068,10.5,4.2,4.2,0,0,1,9.983,14.787Zm-.014-7.2a2.653,2.653,0,0,0-1.932.839A3.011,3.011,0,0,0,7.424,11.6a2.769,2.769,0,0,0,2.563,1.8l0,.01A2.86,2.86,0,0,0,12.76,10.5,2.859,2.859,0,0,0,10,7.585H9.969Z" transform="translate(20 21) rotate(180)" fill="#1b806d" stroke="#1b806d" stroke-miterlimit="10" stroke-width="0.6"/>
      </g>
    </g>
  </svg>
  