<svg xmlns="http://www.w3.org/2000/svg" width="18" height="21.001" viewBox="0 0 18 21.001">
  <g id="Icons_Info_business" data-name="Icons/Info/business" transform="translate(-3 -0.999)">
    <path id="Business" d="M15,21H1a1,1,0,0,1-.116-1.993L1,19H2V4.314a1,1,0,0,1,.733-.964l12-3.313A1,1,0,0,1,16,1V19h1a1,1,0,0,1,.116,1.993L17,21Zm-1-2V2.314L4,5.074V19H6V16a1,1,0,0,1,1-1h4a1,1,0,0,1,1,1v3ZM8,19h2V17H8Zm2-6a1,1,0,1,1,1,1A1,1,0,0,1,10,13ZM6,13a1,1,0,1,1,1,1A1,1,0,0,1,6,13Zm4-3a1,1,0,1,1,1,1A1,1,0,0,1,10,10ZM6,10a1,1,0,1,1,1,1A1,1,0,0,1,6,10Zm4-3a1,1,0,1,1,1,1A1,1,0,0,1,10,7ZM6,7A1,1,0,1,1,7,8,1,1,0,0,1,6,7Z" transform="translate(3 0.999)" fill="#003d4c"/>
  </g>
</svg>
