<svg xmlns="http://www.w3.org/2000/svg" width="23.556" height="16.116" viewBox="0 0 23.556 16.116">
    <g id="users" transform="translate(4.445 -1.884)">
      <path id="Path_4919" data-name="Path 4919" d="M13.444,19.667V18.111A3.111,3.111,0,0,0,10.333,15H4.111A3.111,3.111,0,0,0,1,18.111v1.556" transform="translate(0 -2.667)" fill="none" stroke="#003d4c" stroke-linecap="round" stroke-linejoin="round" stroke-width="2"/>
      <circle id="Ellipse_402" data-name="Ellipse 402" cx="3" cy="3" r="3" transform="translate(4.555 3)" fill="none" stroke="#003d4c" stroke-linecap="round" stroke-linejoin="round" stroke-width="2"/>
      <path id="Path_4920" data-name="Path 4920" d="M22.333,19.7V18.14A3.111,3.111,0,0,0,20,15.13" transform="translate(-4.222 -2.696)" fill="none" stroke="#003d4c" stroke-linecap="round" stroke-linejoin="round" stroke-width="2"/>
      <path id="Path_4923" data-name="Path 4923" d="M20,19.7V18.14a3.111,3.111,0,0,1,2.334-3.01" transform="translate(-23.445 -2.696)" fill="none" stroke="#003d4c" stroke-linecap="round" stroke-linejoin="round" stroke-width="2"/>
      <path id="Path_4921" data-name="Path 4921" d="M16,3.13a3.111,3.111,0,0,1,0,6.028" transform="translate(-3.333 -0.029)" fill="none" stroke="#003d4c" stroke-linecap="round" stroke-linejoin="round" stroke-width="2"/>
      <path id="Path_4922" data-name="Path 4922" d="M18.34,3.13a3.111,3.111,0,0,0,0,6.028" transform="translate(-16.34 -0.029)" fill="none" stroke="#003d4c" stroke-linecap="round" stroke-linejoin="round" stroke-width="2"/>
    </g>
  </svg>
