<svg xmlns="http://www.w3.org/2000/svg" width="33" height="32.173" viewBox="0 0 33 32.173">
    <g id="navigation-_-Side-navigation-_-Accounts-compressed" data-name="navigation-/-Side-navigation-/-Accounts-compressed" transform="translate(-38 -29)">
      <g id="logo_o-dummy" data-name="logo/o-dummy" transform="translate(38 29)">
        <g id="logo_o-dummy-2" data-name="logo/o-dummy">
          <path id="Path_391" d="M28.126,27.478a16.1,16.1,0,0,1-11.671,4.513A15.876,15.876,0,0,1,0,16.089V16a16.509,16.509,0,0,1,33-.094v.088A15.962,15.962,0,0,1,28.126,27.478ZM9.776,22.844a9.452,9.452,0,0,0,6.769,2.875v0a9.265,9.265,0,0,0,9.315-9.626V16A9.407,9.407,0,0,0,9.731,9.118a9.225,9.225,0,0,0-2.591,6.8V16A9.37,9.37,0,0,0,9.776,22.844Z" fill="#fff" fill-rule="evenodd"/>
          <path id="Path_392" d="M0,3.479A9.633,9.633,0,0,0,9.7,7.148,9.263,9.263,0,0,0,17.01,0,90.747,90.747,0,0,0,0,3.479Z" transform="translate(8.99 18.652)" fill="#00a793" fill-rule="evenodd"/>
          <path id="Path_393" d="M30.535,0A16.506,16.506,0,0,1,17.653,13.773,16.845,16.845,0,0,1,0,6.737,53.124,53.124,0,0,1,6.576,4.126,9.361,9.361,0,0,0,16.1,7.8,9.183,9.183,0,0,0,23.273.641C25.685.357,28.116.147,30.535,0Z" transform="translate(2.465 18)" fill="#00d0b6" fill-rule="evenodd"/>
        </g>
      </g>
    </g>
  </svg>
