<svg xmlns="http://www.w3.org/2000/svg" width="127.524" height="27.132" viewBox="0 0 127.524 27.132">
    <g id="logo_dummy" data-name="logo/dummy" transform="translate(0 0)">
      <path id="Path_385" d="M7.76,22.384H7.645a7.466,7.466,0,0,1-5.292-2.137A8.406,8.406,0,0,1,0,14.091v-.058A8.43,8.43,0,0,1,2.33,7.879,7.468,7.468,0,0,1,7.641,5.742h.133a6.59,6.59,0,0,1,5.1,2.4V2.331A2.256,2.256,0,0,1,14.049.314a2.477,2.477,0,0,1,2.415,0,2.257,2.257,0,0,1,1.172,2.017V19.989a2.258,2.258,0,0,1-1.172,2.017,2.477,2.477,0,0,1-2.415,0,2.257,2.257,0,0,1-1.173-2.017v-.211A6.235,6.235,0,0,1,7.76,22.384ZM8.868,9.6a4.37,4.37,0,0,0-3.048,1.37,3.982,3.982,0,0,0-1.055,3.059v.06A3.892,3.892,0,0,0,6.644,17.91a4.277,4.277,0,0,0,4.416,0,3.889,3.889,0,0,0,1.879-3.819v-.06A3.972,3.972,0,0,0,11.9,10.984,4.351,4.351,0,0,0,8.868,9.6Z" transform="translate(24.419 0)" fill="#fff"/>
      <path id="Path_386" d="M4.37,21.027c2.725,0,4.072-1.223,5.422-4.473l5.6-13.391a3.437,3.437,0,0,0,.21-1.073A2.112,2.112,0,0,0,13.445,0,2.3,2.3,0,0,0,11.26,1.73L7.906,11.009,4.431,1.7A2.2,2.2,0,0,0,2.245,0,2.152,2.152,0,0,0,0,2.18,3.3,3.3,0,0,0,.239,3.224L5.718,15.871l-.149.357a1.485,1.485,0,0,1-1.617.954A2.988,2.988,0,0,1,2.995,17a2.158,2.158,0,0,0-.749-.119,1.812,1.812,0,0,0-1.8,1.849,1.964,1.964,0,0,0,1.437,1.879,6.867,6.867,0,0,0,2.483.414Z" transform="translate(45.447 6.105)" fill="#fff"/>
      <path id="Path_387" d="M6.829,17.636c3.431,0,6.059-1.719,6.059-5.508v-.059c0-3.12-2.572-4.266-4.788-5.061C6.386,6.371,4.879,5.926,4.879,4.971V4.908c0-.668.561-1.183,1.655-1.183A8,8,0,0,1,9.965,4.807a1.547,1.547,0,0,0,.823.223,1.7,1.7,0,0,0,1.275-.546,1.98,1.98,0,0,0,.528-1.364,1.988,1.988,0,0,0-1.065-1.815A10.5,10.5,0,0,0,6.62,0C3.428,0,.828,1.942.828,5.412v.064C.828,8.786,3.341,9.9,5.557,10.6c1.744.574,3.281.924,3.281,1.973v.064c0,.764-.591,1.273-1.892,1.273A7.952,7.952,0,0,1,2.66,12.381a1.627,1.627,0,0,0-.887-.254,1.679,1.679,0,0,0-1.263.549,2.045,2.045,0,0,0,.348,3.016A10.484,10.484,0,0,0,6.829,17.636Z" transform="translate(63.083 5.427)" fill="#fff"/>
      <path id="Path_388" d="M6.83,17.636c3.431,0,6.058-1.719,6.058-5.508v-.059c0-3.12-2.572-4.266-4.788-5.061C6.387,6.371,4.878,5.926,4.878,4.971V4.908c0-.668.563-1.183,1.655-1.183A8,8,0,0,1,9.964,4.807a1.546,1.546,0,0,0,.823.223,1.7,1.7,0,0,0,1.274-.546,1.979,1.979,0,0,0,.527-1.364,1.987,1.987,0,0,0-1.063-1.815A10.5,10.5,0,0,0,6.62,0C3.428,0,.828,1.942.828,5.412v.064C.828,8.786,3.339,9.9,5.556,10.6c1.743.574,3.28.924,3.28,1.973v.064c0,.764-.591,1.273-1.891,1.273A7.946,7.946,0,0,1,2.66,12.381a1.627,1.627,0,0,0-.886-.254,1.678,1.678,0,0,0-1.263.549,2.046,2.046,0,0,0,.347,3.016A10.483,10.483,0,0,0,6.83,17.636Z" transform="translate(78.685 5.427)" fill="#fff"/>
      <path id="Path_389" d="M8,17.638a7.724,7.724,0,0,1-5.622-2.449A8.774,8.774,0,0,1,.008,8.879V8.815A8.77,8.77,0,0,1,2.187,2.626,7.793,7.793,0,0,1,7.907,0h.138a7.394,7.394,0,0,1,5.341,2.345A8.294,8.294,0,0,1,15.6,8.15a2.272,2.272,0,0,1-.583,1.645,2.026,2.026,0,0,1-1.48.663H4.51A3.757,3.757,0,0,0,8.167,13.78c.08,0,.163,0,.247-.009h.052a5.062,5.062,0,0,0,3.168-1.136,1.643,1.643,0,0,1,1.039-.38h.1A1.7,1.7,0,0,1,14,12.806a1.914,1.914,0,0,1,.5,1.346,1.942,1.942,0,0,1-.6,1.422A8.031,8.031,0,0,1,8.57,17.633c-.072,0-.144,0-.215,0C8.242,17.635,8.122,17.638,8,17.638ZM7.914,3.856a3.681,3.681,0,0,0-3.46,3.6h6.829a3.516,3.516,0,0,0-3.368-3.6Z" transform="translate(94.286 5.426)" fill="#fff"/>
      <path id="Path_390" d="M4.372,21.027c2.723,0,4.072-1.223,5.421-4.473l5.6-13.391a3.4,3.4,0,0,0,.21-1.073A2.112,2.112,0,0,0,13.445,0,2.3,2.3,0,0,0,11.26,1.73L7.907,11.009,4.432,1.7A2.2,2.2,0,0,0,2.245,0,2.152,2.152,0,0,0,0,2.18,3.3,3.3,0,0,0,.239,3.224l5.48,12.646-.15.357a1.484,1.484,0,0,1-1.617.954A2.988,2.988,0,0,1,2.994,17a2.152,2.152,0,0,0-.749-.119,1.812,1.812,0,0,0-1.8,1.849,1.963,1.963,0,0,0,1.437,1.879A6.868,6.868,0,0,0,4.372,21.027Z" transform="translate(111.922 6.105)" fill="#fff"/>
      <g id="Group" transform="translate(0 1.357)">
        <path id="Path_391" d="M10.792,21.706a10.783,10.783,0,0,1-9.949-6.58A10.634,10.634,0,0,1,0,10.913v-.06A11.175,11.175,0,0,1,11.161,0h.033A11.174,11.174,0,0,1,22.384,10.79v.06a10.831,10.831,0,0,1-3.305,7.789A10.869,10.869,0,0,1,11.49,21.7c-.1,0-.214,0-.327,0S10.915,21.706,10.792,21.706Zm.345-17.442A6.285,6.285,0,0,0,4.843,10.8v.06a6.384,6.384,0,0,0,6.38,6.591l.026,0a6.284,6.284,0,0,0,6.292-6.529v-.06a6.384,6.384,0,0,0-6.378-6.591Z" transform="translate(0 0)" fill="#fff"/>
        <path id="Path_392" d="M0,2.249A6.563,6.563,0,0,0,6.493,4.619,6.1,6.1,0,0,0,11.383,0,62.618,62.618,0,0,0,0,2.249Z" transform="translate(6.254 12.888)" fill="#00a793"/>
        <path id="Path_393" d="M20.69,0a11.21,11.21,0,0,1-8.729,9.369A11.393,11.393,0,0,1,0,4.583,35.911,35.911,0,0,1,4.456,2.807a6.33,6.33,0,0,0,6.453,2.5A6.235,6.235,0,0,0,15.769.436C17.4.243,19.051.1,20.69,0Z" transform="translate(1.637 12.21)" fill="#00d0b6"/>
      </g>
    </g>
  </svg>
