<svg xmlns="http://www.w3.org/2000/svg" width="78" height="67.132" viewBox="0 0 78 67.132">
    <g id="Group_11976" data-name="Group 11976" transform="translate(-15 -435.289)">
      <text id="label" transform="translate(15 466.421)" fill="#fff" font-size="12" font-family="SegoeUI, Segoe UI"><tspan x="21.882" y="13">Global </tspan><tspan x="18.322" y="29">settings</tspan></text>
      <g id="Symbols" transform="translate(42.583 434.554)">
        <g id="icon_nav_settings" data-name="icon/nav/settings" transform="translate(1 1)">
          <g id="noun_Settings_937618">
            <path id="Shape" d="M11.312,23.1h-.66l-.337-.106A2.822,2.822,0,0,1,8.5,21.344a4.091,4.091,0,0,0-.44-.781c-.275-.383-.5-.462-.66-.462a2.25,2.25,0,0,0-1.186.194,2.6,2.6,0,0,1-2.984-.562,2.928,2.928,0,0,1-.591-3.122,2.745,2.745,0,0,0,.22-1.058.946.946,0,0,0-.128-.564A2.3,2.3,0,0,0,1.7,14.177a2.654,2.654,0,0,1-1.085-.843,2.853,2.853,0,0,1-.528-2.492A2.816,2.816,0,0,1,1.7,8.928a2.328,2.328,0,0,0,.755-.49,1.053,1.053,0,0,0,.385-.584,2.511,2.511,0,0,0-.183-1.328,2.929,2.929,0,0,1-.068-2.054A2.652,2.652,0,0,1,4.025,2.823a2.62,2.62,0,0,1,2.2,0,2.1,2.1,0,0,0,.968.2A.815.815,0,0,0,7.7,2.883,2.377,2.377,0,0,0,8.471,1.8,2.794,2.794,0,0,1,9.285.649,2.518,2.518,0,0,1,11.67.1a2.81,2.81,0,0,1,1.817,1.7,2.525,2.525,0,0,0,.469.795A.96.96,0,0,0,14.568,3a2.244,2.244,0,0,0,1.195-.2,2.543,2.543,0,0,1,1.98-.072,2.615,2.615,0,0,1,1.558,1.5,3.01,3.01,0,0,1,0,2.31,2.486,2.486,0,0,0-.2,1.021.961.961,0,0,0,.123.545,2.338,2.338,0,0,0,1.076.839,2.472,2.472,0,0,1,1.239,1.125,4.926,4.926,0,0,1,.29.7c.029.083.059.169.09.252l.029.06.013.067a2.064,2.064,0,0,1,0,.783l-.015.074-.029.092a.435.435,0,0,1-.022.072,2.822,2.822,0,0,1-1.7,2.04,2.242,2.242,0,0,0-.777.55.877.877,0,0,0-.3.552,2.6,2.6,0,0,0,.185,1.247,2.941,2.941,0,0,1,.2,1.511,2.74,2.74,0,0,1-1.32,2.1,2.634,2.634,0,0,1-2.42.129,2.238,2.238,0,0,0-.968-.21h0a.809.809,0,0,0-.546.152,2.539,2.539,0,0,0-.768,1.109,2.681,2.681,0,0,1-.691,1.016,3.194,3.194,0,0,1-1.373.716Zm-.44-1.511h.253a1.692,1.692,0,0,0,.7-.353,1.194,1.194,0,0,0,.308-.446,4.057,4.057,0,0,1,1.221-1.746,2.169,2.169,0,0,1,1.426-.462,3.576,3.576,0,0,1,1.575.344,1.264,1.264,0,0,0,1.133-.074,1.231,1.231,0,0,0,.592-.97,1.35,1.35,0,0,0-.092-.711,4.2,4.2,0,0,1-.3-1.987,2.412,2.412,0,0,1,.711-1.483,3.668,3.668,0,0,1,1.278-.9,1.355,1.355,0,0,0,.834-1.023c.018-.065.035-.12.051-.169a.485.485,0,0,0,0-.069v-.03c-.026-.072-.051-.141-.075-.213a3.64,3.64,0,0,0-.2-.487,1,1,0,0,0-.517-.462,3.742,3.742,0,0,1-1.712-1.365,2.48,2.48,0,0,1-.392-1.411,4.054,4.054,0,0,1,.328-1.661,1.45,1.45,0,0,0-.02-1.076,1.153,1.153,0,0,0-.689-.679,1.18,1.18,0,0,0-.937.021,3.637,3.637,0,0,1-1.912.323,2.333,2.333,0,0,1-1.54-.9,4.037,4.037,0,0,1-.748-1.275,1.342,1.342,0,0,0-.851-.774,1.141,1.141,0,0,0-1.1.273,1.288,1.288,0,0,0-.381.538A3.886,3.886,0,0,1,8.555,4.1a2.175,2.175,0,0,1-1.346.42,3.618,3.618,0,0,1-1.584-.342,1.262,1.262,0,0,0-1.03.016,1.169,1.169,0,0,0-.636.742,1.358,1.358,0,0,0,.02.975,4.1,4.1,0,0,1,.29,2.141,2.515,2.515,0,0,1-.84,1.5,3.751,3.751,0,0,1-1.214.788,1.344,1.344,0,0,0-.733.9,1.288,1.288,0,0,0,.266,1.155,1.21,1.21,0,0,0,.5.39A3.765,3.765,0,0,1,3.9,14.091,2.47,2.47,0,0,1,4.3,15.549,4.35,4.35,0,0,1,3.97,17.2a1.362,1.362,0,0,0,.29,1.446,1.208,1.208,0,0,0,1.387.25,3.636,3.636,0,0,1,1.894-.31A2.332,2.332,0,0,1,9.2,19.651a5.574,5.574,0,0,1,.605,1.076,1.364,1.364,0,0,0,.92.818Zm.114-5.313A4.616,4.616,0,0,1,6.5,11.55a4.616,4.616,0,0,1,4.486-4.717h0a4.616,4.616,0,0,1,4.493,4.717h0A4.615,4.615,0,0,1,11,16.267h-.022Zm0-7.923h0a3.055,3.055,0,0,0-2.819,1.986,3.321,3.321,0,0,0,.674,3.493,2.943,2.943,0,0,0,2.141.924H11a3.136,3.136,0,0,0,3.036-3.206h0a3.138,3.138,0,0,0-3.047-3.206Z" fill="#fff" stroke="#fff" stroke-width="0.5"/>
          </g>
        </g>
      </g>
    </g>
  </svg>
