<svg id="Icons_Info_profile" data-name="Icons/Info/profile" xmlns="http://www.w3.org/2000/svg" width="24" height="24" viewBox="0 0 24 24">
    <path id="Profile" d="M17,21l-8-.01L1,21a1,1,0,0,1-1-1,9,9,0,0,1,18,0,1,1,0,0,1-1,1Zm-7-2.009L15.929,19l-.029-.182A7,7,0,0,0,10.182,13.1L10,13.072Zm-7.9-.173L2.071,19,8,18.991V13.07A7.005,7.005,0,0,0,2.1,18.818ZM4.363,4.637A4.636,4.636,0,1,1,9,9.273,4.642,4.642,0,0,1,4.363,4.637Zm2,0A2.637,2.637,0,1,0,9,2,2.64,2.64,0,0,0,6.363,4.637Z" transform="translate(3 1)" fill="#003d4c"/>
  </svg>
  